<?xml version="1.0" encoding="utf-8"?>
<!-- Generator: Adobe Illustrator 25.0.1, SVG Export Plug-In . SVG Version: 6.00 Build 0)  -->
<svg version="1.2" baseProfile="tiny" id="Layer_1" xmlns="http://www.w3.org/2000/svg" xmlns:xlink="http://www.w3.org/1999/xlink"
	 x="0px" y="0px" viewBox="0 0 612 792" overflow="visible" xml:space="preserve">
<path d="M445,465.3c-5.2-0.7-10-1.5-14.9-2.1c-6.7-0.8-13.3-1.7-20-2.3c-8.6-0.8-17.3-1.4-25.9-1.9c-9-0.5-18.1-0.8-27.1-0.8
	c-12.1-0.1-24.3-0.1-36.4,0.4c-12.1,0.4-24.1,1.3-36.1,2.3c-17.4,1.4-34.7,3.9-51.7,7.6c0,0-0.1,0-0.2-0.1c-1.2-2.9-1.7-5.9-1.5-9
	c0.6-8.5,4.6-15.2,10.8-20.8c5.8-5.2,12.7-8.6,20-11c4.9-1.6,10-2.7,15-4c0.4-0.1,0.8-0.2,1.3-0.3c-0.2-0.5-0.3-0.9-0.4-1.4
	c-4.2-11.6-7.4-23.5-9.2-35.8c-5.5-38.2,3.1-72.9,26.1-103.9c13.9-18.8,31.2-34,50.6-46.8c2.4-1.6,4.9-3.1,7.4-4.7
	c0.3-0.2,0.7-0.4,1.1-0.7c-12.9-9-27.1-13.5-42.7-12.5c-15.7,1-29.1,7.3-40.7,18.3c0.3-1.4,0.5-2.4,0.8-3.5c0.3-1.1,0.6-2.2,0.9-3.2
	c3.1-10.2,7.9-19.3,15.6-26.9c7.3-7.2,16-11.6,26.3-12.6c9.9-1,19.1,1.5,27.7,6.3c5.3,3,10,6.7,14.3,11c0.2,0.2,0.4,0.4,0.7,0.6
	c-5.9-16.2-15.6-29.4-30-39.1c-14.3-9.7-30.3-13.8-47.8-13.1c0.5-0.4,0.7-0.6,0.9-0.7c10.1-7.3,21.1-12.8,33.5-15
	c16.8-3.1,32.1,0,45.4,11.1c8.4,7.1,13.9,16.2,17.3,26.6c2.3,6.9,3.5,14,3.9,21.3c0,0.5,0.1,1,0.1,1.9c0.4-0.6,0.7-0.9,0.9-1.2
	c7.4-9.8,16.2-18,27.3-23.6c8.4-4.2,17.3-6.4,26.7-5.9c11,0.6,20.7,4.5,29.1,11.5c10,8.2,16.5,18.7,21,30.7c1.1,3.1,2,6.2,2.9,9.4
	c-13-11.3-27.9-17.9-45-19.1c-17.1-1.2-32.8,3.4-47.1,12.8c3.1-0.6,6.1-1.4,9.2-1.9c15-2.6,29.7-2.1,43.9,4
	c18.2,7.9,29.2,21.7,32.8,41.2c2.5,13.5,0.6,26.7-4,39.6c-1.1,3.2-2.6,6.3-3.9,9.4c-0.1,0.4-0.3,0.7-0.7,1.3
	c-2.7-18.9-10.5-34.9-24-48.1c-13.5-13.1-29.8-20.3-48.6-22.8c1.5,1.2,2.8,2.2,4,3.2c7.7,6.5,13.8,14.2,16.7,23.9
	c4.2,14.1,1.2,26.9-7.9,38.2c-6.9,8.6-15.9,14.3-26.1,18.3c-0.1,0-0.2,0-0.5,0c8.7-12.6,12.5-26.5,10.7-41.7
	c-1.8-15.2-8.7-27.8-19.7-38.4c-0.2,0.1-0.4,0.2-0.5,0.3c-15.6,11.6-29.1,25.1-39.2,41.8c-8.5,13.9-13.9,28.9-16.3,45
	c-1.6,11-1.8,22-0.7,33.1c2,20.8,8.1,40.4,17,59.2c0.5,1.1,1.2,1.5,2.3,1.6c9.7,1,19.3,2.5,28.8,4.6c16.9,3.6,33.4,8.5,48.8,16.6
	c8.4,4.4,16.2,9.5,22.6,16.5C442.1,461.7,443.4,463.5,445,465.3z"/>
</svg>
